<?xml version="1.0" encoding="UTF-8" standalone="no" ?>
<!DOCTYPE svg PUBLIC "-//W3C//DTD SVG 1.1//EN" "http://www.w3.org/Graphics/SVG/1.1/DTD/svg11.dtd">
<svg xmlns="http://www.w3.org/2000/svg" xmlns:xlink="http://www.w3.org/1999/xlink" version="1.1" width="640" height="480" viewBox="0 0 640 480" xml:space="preserve">
<desc>Created with Fabric.js 3.6.6</desc>
<defs>
</defs>
<g transform="matrix(0.9 0 0 0.9 325.25 368.75)"  >
<g style=""   >
		<g transform="matrix(1 0 0 1 -2.1 -142)" id="Shape"  >
<path style="stroke: none; stroke-width: 1; stroke-dasharray: none; stroke-linecap: butt; stroke-dashoffset: 0; stroke-linejoin: miter; stroke-miterlimit: 4; fill: rgb(251,251,249); fill-rule: nonzero; opacity: 1;"  transform=" translate(-447.9, -260)" d="M 682.7 370.1 h -92.3 C 613.9 339.6 628 301.5 628 260 c 0 -41.5 -14.1 -79.7 -37.6 -110.2 h 92.3 c 15.6 33.5 24.4 70.8 24.4 110.2 C 707.1 299.4 698.3 336.7 682.7 370.1 z M 447.9 370.1 c -60.7 0 -109.8 -49.3 -109.8 -110.2 c 0 -60.8 49.2 -110.2 109.8 -110.2 c 60.7 0 109.8 49.3 109.8 110.2 C 557.7 320.8 508.6 370.1 447.9 370.1 z M 267.8 260 c 0 99.8 80.6 180.7 180.1 180.7 c 26.7 0 51.9 -6 74.7 -16.4 V 509 c -23.7 7.1 -48.7 11 -74.7 11 c -143.1 0 -259.2 -116.4 -259.2 -260 c 0 -143.6 116.1 -260 259.2 -260 c 26 0 51 3.9 74.7 11 v 84.7 c -22.8 -10.5 -48 -16.4 -74.7 -16.4 C 348.4 79.3 267.8 160.2 267.8 260 z" stroke-linecap="round" />
</g>
		<g transform="matrix(1 0 0 1 -0.05 359.5)" id="Shape_1_"  >
<path style="stroke: none; stroke-width: 1; stroke-dasharray: none; stroke-linecap: butt; stroke-dashoffset: 0; stroke-linejoin: miter; stroke-miterlimit: 4; fill: rgb(251,251,249); fill-rule: nonzero; opacity: 1;"  transform=" translate(-449.95, -761.5)" d="M 557.7 803.7 c -1.9 0 -3.8 -0.7 -5.1 -2.2 l -34.3 -34.9 c -2.1 -2.1 -2.6 -5.2 -1.4 -7.8 c 1.2 -2.6 3.6 -4.3 6.4 -4.3 h 14.6 c 6.3 0 11.8 -4.9 11.8 -10.4 c 0 -5.4 -5.6 -10.1 -11.9 -10.1 H 510 c 0 0 -0.1 0.2 -0.1 0.5 v 62.1 c 0 3.9 -3.2 7.1 -7.1 7.1 c -3.9 0 -7 -3.2 -7 -7.1 v -62.1 c 0 -8 6.4 -14.5 14.2 -14.5 h 27.7 c 14.2 0 25.8 10.8 25.8 24.1 c 0 12.6 -10.5 23.4 -23.5 24.5 l 22.5 23 c 1.5 1.4 2.3 3.4 2.2 5.4 c -0.1 1.9 -1 3.7 -2.4 5 C 561 803.1 559.4 803.7 557.7 803.7 z M 753.9 803.7 c -12.2 0 -21.7 -3.4 -28.3 -10.1 c -6.7 -6.8 -10.1 -16.7 -10.1 -29.5 v -37.6 c 0 -3.9 3.1 -7.1 6.9 -7.1 c 3.9 0 7.1 3.2 7.1 7.1 v 37.6 c 0 17.5 7.6 25.3 24.8 25.3 c 17.4 0 24.8 -7.6 24.9 -25.4 v -37.5 c 0 -3.9 3.1 -7.1 7 -7.1 s 7 3.2 7 7.1 v 37.6 c 0 25.5 -13.8 39.5 -38.9 39.5 C 754.1 803.7 754 803.7 753.9 803.7 z M 893 803.7 c -3.9 0 -7.1 -3.2 -7.1 -7.1 v -62.6 c -0.2 -0.2 -0.3 -0.1 -0.4 0 l -16.7 27.6 c -2.5 4.4 -7.1 7.1 -12.3 7.1 c -5 0 -9.4 -2.6 -12.2 -7.1 l -16.7 -27.5 c -0.1 -0.2 -0.3 -0.3 -0.3 -0.3 l -0.1 62.8 c 0 3.9 -3.2 7.1 -7.1 7.1 c -3.8 0 -7 -3.2 -7 -7.1 v -62.6 c 0 -8 6.4 -14.5 14.2 -14.5 c 5 0 9.5 2.7 12.3 7.2 l 16.7 27.5 c 0.1 0.2 0.2 0.3 0.3 0.3 c -0.1 0 0.2 -0.2 0.2 -0.4 l 16.6 -27.5 c 2.8 -4.6 7.3 -7.2 12.3 -7.2 c 7.8 0 14.2 6.5 14.2 14.5 v 62.6 C 900 800.5 896.9 803.7 893 803.7 z M 687.1 803.7 c -3.8 0 -7 -3.2 -7 -7.1 v -69.9 c 0 -4 3.1 -7.2 7 -7.2 c 3.9 0 7.1 3.2 7.1 7.2 v 69.9 C 694.2 800.5 691 803.7 687.1 803.7 z M 433.4 803.7 c -26.7 0 -44.6 -16.9 -44.6 -42.1 c 0 -24.8 18.3 -42.1 44.6 -42.1 c 26.7 0 44.6 16.9 44.6 42.1 C 478 786.7 460.1 803.7 433.4 803.7 z M 433.4 733.8 c -19.1 0 -30.5 10.4 -30.5 27.8 c 0 17.5 11.4 27.9 30.5 27.9 c 19.1 0 30.6 -10.4 30.6 -27.9 C 463.9 744.2 452.5 733.8 433.4 733.8 z M 340.1 803.7 c -26.7 0 -44.6 -16.9 -44.6 -42.1 c 0 -24.8 18.3 -42.1 44.6 -42.1 c 12.9 0 24 3.9 32 11.2 c 1.4 1.3 2.2 3 2.3 4.9 c 0.1 1.9 -0.5 3.7 -1.8 5.2 c -1.2 1.4 -3 2.2 -4.9 2.4 c -1.9 0.1 -3.7 -0.5 -5.1 -1.8 c -5.4 -4.9 -13.2 -7.5 -22.6 -7.5 c -19.1 0 -30.5 10.4 -30.5 27.8 c 0 17.4 11.4 27.8 30.5 27.8 c 9.4 0 17.2 -2.6 22.6 -7.5 c 1.4 -1.3 3.2 -1.9 5.1 -1.8 c 1.9 0.1 3.6 0.9 4.9 2.4 c 2.6 2.9 2.3 7.4 -0.6 10 C 364.2 799.8 353.1 803.7 340.1 803.7 z M 263.9 803.7 c -5 0 -9.6 -2.6 -12.2 -7 L 214.8 734 c -0.1 -0.2 -0.2 -0.3 -0.3 -0.3 l -0.1 62.8 c 0 3.9 -3.1 7.1 -7 7.1 c -3.9 0 -7.1 -3.2 -7.1 -7.1 v -62.6 c 0 -8 6.4 -14.5 14.2 -14.5 c 5 0 9.6 2.7 12.3 7.2 l 36.9 62.6 c 0 0.1 0.1 0.1 0.2 0.1 c 0.1 0 0.2 -0.1 0.2 -0.3 v -62.5 c 0 -4 3.1 -7.2 7 -7.2 c 4 0 7.1 3.2 7.1 7.2 v 62.5 C 278.3 797.2 271.8 803.7 263.9 803.7 z M 137.9 803.7 c -26.7 0 -44.6 -16.9 -44.6 -42.1 c 0 -24.8 18.3 -42.1 44.6 -42.1 c 26.7 0 44.6 16.9 44.6 42.1 C 182.5 786.7 164.6 803.7 137.9 803.7 z M 137.9 733.8 c -19.1 0 -30.5 10.4 -30.5 27.8 c 0 17.5 11.4 27.9 30.5 27.9 c 19.1 0 30.5 -10.4 30.5 -27.9 C 168.5 744.2 157 733.8 137.9 733.8 z M 44.6 803.7 C 17.9 803.7 0 786.7 0 761.6 c 0 -24.8 18.4 -42.1 44.6 -42.1 c 12.9 0 24 3.9 32 11.2 c 1.4 1.3 2.2 3 2.3 4.9 c 0.1 1.9 -0.5 3.7 -1.8 5.2 c -1.2 1.4 -3 2.2 -4.8 2.4 c -1.9 0.1 -3.7 -0.5 -5.1 -1.8 c -5.3 -4.9 -13.2 -7.5 -22.6 -7.5 c -19.1 0 -30.5 10.4 -30.5 27.8 c 0 17.4 11.4 27.8 30.5 27.8 c 9.4 0 17.3 -2.6 22.6 -7.5 c 1.4 -1.3 3.2 -1.9 5.1 -1.8 c 1.9 0.1 3.6 0.9 4.8 2.4 c 2.6 2.9 2.3 7.4 -0.5 10 C 68.8 799.8 57.7 803.7 44.6 803.7 z M 617.5 803.2 c -0.3 0 -0.5 0 -0.8 0 h -20.1 c -7.8 0 -14.2 -6.5 -14.2 -14.5 v -54.3 c 0 -8 6.4 -14.5 14.2 -14.5 h 20.1 c 15.1 -0.2 26.7 3.5 34.2 11 c 7 7 10.5 17.3 10.5 30.5 c 0 13.2 -3.5 23.5 -10.4 30.5 C 643.5 799.6 632.5 803.2 617.5 803.2 z M 617.2 734.1 c -0.1 0 -0.3 0 -0.4 0 h -20.1 c 0 0 -0.2 0.2 -0.2 0.4 v 54.3 c 0 0.1 0.1 0.3 0.2 0.4 l 20.1 0 c 11.5 0.1 19.4 -2.2 24.1 -6.9 c 4.3 -4.3 6.4 -11.1 6.4 -20.7 c 0 -9.4 -2.1 -16.1 -6.3 -20.4 C 636.3 736.4 628.5 734.1 617.2 734.1 z" stroke-linecap="round" />
</g>
</g>
</g>
</svg>